<?xml version="1.0" encoding="UTF-8" standalone="no"?>
<!-- Created with Inkscape (http://www.inkscape.org/) -->

<svg
   xmlns:dc="http://purl.org/dc/elements/1.1/"
   xmlns:cc="http://creativecommons.org/ns#"
   xmlns:rdf="http://www.w3.org/1999/02/22-rdf-syntax-ns#"
   xmlns:svg="http://www.w3.org/2000/svg"
   xmlns="http://www.w3.org/2000/svg"
   xmlns:sodipodi="http://sodipodi.sourceforge.net/DTD/sodipodi-0.dtd"
   xmlns:inkscape="http://www.inkscape.org/namespaces/inkscape"
   width="512"
   height="512"
   viewBox="0 0 135.46666 135.46667"
   version="1.1"
   id="svg8"
   sodipodi:docname="icon_select.svg"
   inkscape:version="0.92.4 (5da689c313, 2019-01-14)">
  <defs
     id="defs2" />
  <sodipodi:namedview
     id="base"
     pagecolor="#ffffff"
     bordercolor="#666666"
     borderopacity="1.0"
     inkscape:pageopacity="0.0"
     inkscape:pageshadow="2"
     inkscape:zoom="0.70710678"
     inkscape:cx="441.32479"
     inkscape:cy="300.9031"
     inkscape:document-units="mm"
     inkscape:current-layer="layer1"
     showgrid="true"
     units="px"
     inkscape:snap-global="false"
     inkscape:window-width="1920"
     inkscape:window-height="1057"
     inkscape:window-x="1912"
     inkscape:window-y="-8"
     inkscape:window-maximized="1">
    <inkscape:grid
       type="xygrid"
       id="grid3713"
       spacingx="16.933333"
       spacingy="16.933333" />
  </sodipodi:namedview>
  <metadata
     id="metadata5">
    <rdf:RDF>
      <cc:Work
         rdf:about="">
        <dc:format>image/svg+xml</dc:format>
        <dc:type
           rdf:resource="http://purl.org/dc/dcmitype/StillImage" />
        <dc:title />
      </cc:Work>
    </rdf:RDF>
  </metadata>
  <g
     inkscape:label="Layer 1"
     inkscape:groupmode="layer"
     id="layer1"
     transform="translate(0,-161.53331)">
    <rect
       ry="20.143642"
       y="164.15251"
       x="2.6192667"
       height="130.22816"
       width="130.22813"
       id="rect3808"
       style="fill:#999999;fill-opacity:1;stroke-width:2.03481483" />
    <path
       style="fill:#ffffff;fill-opacity:1;stroke-width:0.9191978"
       d="m 47.379486,283.22798 c -1.643091,-0.71414 -2.987407,-1.50506 -2.987407,-1.7576 0,-0.25256 -0.609815,-2.80029 -1.35512,-5.66172 -0.745306,-2.8614 -2.409173,-14.15327 -3.69752,-25.09297 -1.288313,-10.93973 -3.140339,-26.09498 -4.115563,-33.67835 -4.279194,-33.27515 -4.374663,-37.22753 -0.899245,-37.22753 3.581137,0 12.774249,5.55653 28.57023,17.26846 8.781914,6.51136 24.51946,17.8955 34.972259,25.29811 10.45283,7.40262 19.27205,13.89119 19.59831,14.41908 0.32622,0.52786 0.15321,2.29599 -0.38455,3.92918 l -0.97769,2.96944 -8.87422,-0.29599 c -7.460874,-0.24875 -10.060464,0.074 -16.322589,2.02792 -8.991752,2.8055 -17.34263,7.7115 -23.604686,13.86731 -4.957414,4.87334 -11.667703,14.97887 -14.209101,21.39855 -1.73262,4.3766 -1.606995,4.32085 -5.713108,2.53618 z"
       id="path33"
       inkscape:connector-curvature="0" />
  </g>
</svg>
