<?xml version="1.0" encoding="UTF-8" standalone="no"?>
<!-- Created with Inkscape (http://www.inkscape.org/) -->

<svg
   xmlns:dc="http://purl.org/dc/elements/1.1/"
   xmlns:cc="http://creativecommons.org/ns#"
   xmlns:rdf="http://www.w3.org/1999/02/22-rdf-syntax-ns#"
   xmlns:svg="http://www.w3.org/2000/svg"
   xmlns="http://www.w3.org/2000/svg"
   xmlns:sodipodi="http://sodipodi.sourceforge.net/DTD/sodipodi-0.dtd"
   xmlns:inkscape="http://www.inkscape.org/namespaces/inkscape"
   width="32"
   height="32"
   viewBox="0 0 8.4666662 8.4666669"
   version="1.1"
   id="svg8"
   sodipodi:docname="icon_material.svg"
   inkscape:version="0.92.4 (5da689c313, 2019-01-14)">
  <defs
     id="defs2" />
  <sodipodi:namedview
     id="base"
     pagecolor="#ffffff"
     bordercolor="#666666"
     borderopacity="1.0"
     inkscape:pageopacity="0.0"
     inkscape:pageshadow="2"
     inkscape:zoom="8"
     inkscape:cx="26.692058"
     inkscape:cy="7.8867911"
     inkscape:document-units="mm"
     inkscape:current-layer="layer1"
     showgrid="true"
     units="px"
     inkscape:snap-global="true"
     inkscape:window-width="1920"
     inkscape:window-height="1057"
     inkscape:window-x="1912"
     inkscape:window-y="-8"
     inkscape:window-maximized="1">
    <inkscape:grid
       type="xygrid"
       id="grid3713"
       spacingx="2.1166666"
       spacingy="2.1166666" />
  </sodipodi:namedview>
  <metadata
     id="metadata5">
    <rdf:RDF>
      <cc:Work
         rdf:about="">
        <dc:format>image/svg+xml</dc:format>
        <dc:type
           rdf:resource="http://purl.org/dc/dcmitype/StillImage" />
        <dc:title></dc:title>
      </cc:Work>
    </rdf:RDF>
  </metadata>
  <g
     inkscape:label="Layer 1"
     inkscape:groupmode="layer"
     id="layer1"
     transform="translate(0,-288.53331)">
    <rect
       ry="1.3096191"
       y="288.53333"
       x="0"
       height="8.4666567"
       width="8.4666662"
       id="rect3808"
       style="fill:#999999;fill-opacity:1;stroke-width:0.13229159" />
    <path
       style="color:#000000;font-style:normal;font-variant:normal;font-weight:normal;font-stretch:normal;font-size:40px;line-height:1.25;font-family:sans-serif;font-variant-ligatures:normal;font-variant-position:normal;font-variant-caps:normal;font-variant-numeric:normal;font-variant-alternates:normal;font-feature-settings:normal;text-indent:0;text-align:start;text-decoration:none;text-decoration-line:none;text-decoration-style:solid;text-decoration-color:#000000;letter-spacing:0px;word-spacing:0px;text-transform:none;writing-mode:lr-tb;direction:ltr;text-orientation:mixed;dominant-baseline:auto;baseline-shift:baseline;text-anchor:start;white-space:normal;shape-padding:0;clip-rule:nonzero;display:inline;overflow:visible;visibility:visible;opacity:1;isolation:auto;mix-blend-mode:normal;color-interpolation:sRGB;color-interpolation-filters:linearRGB;solid-color:#000000;solid-opacity:1;vector-effect:none;fill:#ffffff;fill-opacity:1;fill-rule:nonzero;stroke:none;stroke-width:1.17200053;stroke-linecap:butt;stroke-linejoin:round;stroke-miterlimit:4;stroke-dasharray:none;stroke-dashoffset:0;stroke-opacity:1;paint-order:stroke fill markers;color-rendering:auto;image-rendering:auto;shape-rendering:auto;text-rendering:auto;enable-background:accumulate"
       d="m 1.4098953,289.09399 a 0.58605857,0.58605914 0 0 0 -0.58593703,0.58594 v 6.17345 a 0.58605857,0.58605914 0 0 0 0.58593703,0.58593 h 0.8109383 a 0.58605857,0.58605914 0 0 0 0.5859373,-0.58593 v -2.19532 l 0.45625,1.21407 a 0.58605857,0.58605914 0 0 0 0.5484373,0.37969 h 0.839062 a 0.58605857,0.58605914 0 0 0 0.5500003,-0.37969 l 0.45625,-1.21407 v 2.19532 a 0.58605857,0.58605914 0 0 0 0.5859383,0.58593 h 0.8140623 a 0.58605857,0.58605914 0 0 0 0.585937,-0.58593 v -6.17345 a 0.58605857,0.58605914 0 0 0 -0.585937,-0.58594 H 5.8130208 a 0.58605857,0.58605914 0 0 0 -0.5484373,0.37969 l -1.0328123,2.7422 -1.0281253,-2.74064 a 0.58605857,0.58605914 0 0 0 -0.548437,-0.38125 z"
       id="path4535"
       inkscape:connector-curvature="0" />
    <path
       style="color:#000000;font-style:normal;font-variant:normal;font-weight:normal;font-stretch:normal;font-size:40px;line-height:1.25;font-family:sans-serif;font-variant-ligatures:normal;font-variant-position:normal;font-variant-caps:normal;font-variant-numeric:normal;font-variant-alternates:normal;font-feature-settings:normal;text-indent:0;text-align:start;text-decoration:none;text-decoration-line:none;text-decoration-style:solid;text-decoration-color:#000000;letter-spacing:0px;word-spacing:0px;text-transform:none;writing-mode:lr-tb;direction:ltr;text-orientation:mixed;dominant-baseline:auto;baseline-shift:baseline;text-anchor:start;white-space:normal;shape-padding:0;clip-rule:nonzero;display:inline;overflow:visible;visibility:visible;opacity:1;isolation:auto;mix-blend-mode:normal;color-interpolation:sRGB;color-interpolation-filters:linearRGB;solid-color:#000000;solid-opacity:1;vector-effect:none;fill:#000000;fill-opacity:1;fill-rule:nonzero;stroke:none;stroke-width:1.17200053;stroke-linecap:butt;stroke-linejoin:round;stroke-miterlimit:4;stroke-dasharray:none;stroke-dashoffset:0;stroke-opacity:1;paint-order:stroke fill markers;color-rendering:auto;image-rendering:auto;shape-rendering:auto;text-rendering:auto;enable-background:accumulate"
       d="m -9.8124052,289.09392 a 0.58605857,0.58605914 0 0 0 -0.5859378,0.58594 v 6.17344 a 0.58605857,0.58605914 0 0 0 0.5859378,0.58594 h 0.8359368 a 0.58605857,0.58605914 0 0 0 0.5859376,-0.58594 v -2.02344 h 0.3234376 c 0.2509664,0 0.3827704,0.0515 0.4421872,0.0937 a 0.58605857,0.58605914 0 0 0 0.00312,0.003 c 0.042256,0.0296 0.2219728,0.2312 0.4046872,0.60156 a 0.58605857,0.58605914 0 0 0 0.0016,0.003 l 0.7890624,1.58281 a 0.58605857,0.58605914 0 0 0 0.525,0.325 h 0.8968752 a 0.58605857,0.58605914 0 0 0 0.5234376,-0.85 l -0.8453128,-1.68281 -0.0016,-0.003 c -0.1840328,-0.37353 -0.3729768,-0.68252 -0.5890624,-0.93437 -4.88e-4,-5.8e-4 -0.00104,-8e-4 -0.0016,-0.002 0.088331,-0.0836 0.2267112,-0.10603 0.2968752,-0.20625 8.4e-5,-1.2e-4 0.00144,1.1e-4 0.0016,0 0.2614024,-0.3698 0.3796872,-0.82431 0.3796872,-1.30313 0,-0.70926 -0.2325632,-1.36042 -0.7281248,-1.78125 -0.49652,-0.42166 -1.1706136,-0.58282 -1.9578128,-0.58282 z m 3.1812496,1.10938 0.00624,0.006 c -0.00128,-8e-4 -0.00344,-4.3e-4 -0.00472,-0.002 -0.00128,-8e-4 -2.84e-4,-0.003 -0.0016,-0.005 z m -1.7593752,0.75 h 0.4640624 c 0.3127488,0 0.4538176,0.069 0.5156256,0.125 a 0.58605857,0.58605914 0 0 0 0.00624,0.005 c 0.06236,0.0549 0.1109376,0.12578 0.1109376,0.375 0,0.24922 -0.049208,0.32742 -0.1171872,0.38906 -0.061808,0.056 -0.2028768,0.125 -0.5156256,0.125 h -0.4640624 z"
       id="path4537"
       inkscape:connector-curvature="0" />
    <path
       style="color:#000000;font-style:normal;font-variant:normal;font-weight:normal;font-stretch:normal;font-size:40px;line-height:1.25;font-family:sans-serif;font-variant-ligatures:normal;font-variant-position:normal;font-variant-caps:normal;font-variant-numeric:normal;font-variant-alternates:normal;font-feature-settings:normal;text-indent:0;text-align:start;text-decoration:none;text-decoration-line:none;text-decoration-style:solid;text-decoration-color:#000000;letter-spacing:0px;word-spacing:0px;text-transform:none;writing-mode:lr-tb;direction:ltr;text-orientation:mixed;dominant-baseline:auto;baseline-shift:baseline;text-anchor:start;white-space:normal;shape-padding:0;clip-rule:nonzero;display:inline;overflow:visible;visibility:visible;opacity:1;isolation:auto;mix-blend-mode:normal;color-interpolation:sRGB;color-interpolation-filters:linearRGB;solid-color:#000000;solid-opacity:1;vector-effect:none;fill:#000000;fill-opacity:1;fill-rule:nonzero;stroke:none;stroke-width:1.17200053;stroke-linecap:butt;stroke-linejoin:round;stroke-miterlimit:4;stroke-dasharray:none;stroke-dashoffset:0;stroke-opacity:1;paint-order:stroke fill markers;color-rendering:auto;image-rendering:auto;shape-rendering:auto;text-rendering:auto;enable-background:accumulate"
       d="m 21.551021,288.97915 c -1.079034,0 -2.020367,0.33747 -2.685937,1.02656 -0.664594,0.68822 -0.979686,1.64865 -0.979686,2.76251 0,1.11139 0.314781,2.07222 0.978124,2.7625 a 0.58605857,0.58605914 0 0 0 0.0016,0.003 c 0.665892,0.68606 1.607461,1.02031 2.685937,1.02031 0.492247,0 0.965773,-0.0638 1.412499,-0.19687 a 0.58605857,0.58605914 0 0 0 0.0031,-0.002 c 0.445979,-0.136 0.860258,-0.33772 1.234375,-0.60312 a 0.58605857,0.58605914 0 0 0 0.246876,-0.47813 v -2.65004 a 0.58605857,0.58605914 0 0 0 -0.585938,-0.58534 h -2.190637 a 0.58605857,0.58605914 0 0 0 -0.585937,0.58594 v 0.68594 a 0.58605857,0.58605914 0 0 0 0.585937,0.58593 h 0.778125 v 0.67657 c -0.05599,0.0189 -0.09797,0.048 -0.160938,0.0625 -8.8e-4,1.9e-4 -0.0022,-1.7e-4 -0.0031,0 -0.181212,0.0386 -0.403233,0.061 -0.664062,0.061 -0.645135,0 -1.014497,-0.15982 -1.265625,-0.4375 v -0.002 c -0.24936,-0.27903 -0.417187,-0.74606 -0.417187,-1.48906 0,-0.74605 0.168248,-1.21363 0.417187,-1.49219 2.42e-4,-2.8e-4 -2.42e-4,-0.002 0,-0.002 0.251128,-0.27768 0.62049,-0.43751 1.265625,-0.43751 0.31564,0 0.607225,0.0542 0.8875,0.16095 0.281059,0.10707 0.55092,0.26586 0.814062,0.48905 a 0.58605857,0.58605914 0 0 0 0.964062,-0.44687 v -0.8875 a 0.58605857,0.58605914 0 0 0 -0.273438,-0.49614 c -0.355659,-0.22429 -0.745103,-0.39264 -1.160937,-0.50625 -0.414683,-0.11396 -0.851008,-0.17031 -1.301562,-0.17031 z"
       id="path4539"
       inkscape:connector-curvature="0" />
    <path
       style="color:#000000;font-style:normal;font-variant:normal;font-weight:normal;font-stretch:normal;font-size:40px;line-height:1.25;font-family:sans-serif;font-variant-ligatures:normal;font-variant-position:normal;font-variant-caps:normal;font-variant-numeric:normal;font-variant-alternates:normal;font-feature-settings:normal;text-indent:0;text-align:start;text-decoration:none;text-decoration-line:none;text-decoration-style:solid;text-decoration-color:#000000;letter-spacing:0px;word-spacing:0px;text-transform:none;writing-mode:lr-tb;direction:ltr;text-orientation:mixed;dominant-baseline:auto;baseline-shift:baseline;text-anchor:start;white-space:normal;shape-padding:0;clip-rule:nonzero;display:inline;overflow:visible;visibility:visible;opacity:1;isolation:auto;mix-blend-mode:normal;color-interpolation:sRGB;color-interpolation-filters:linearRGB;solid-color:#000000;solid-opacity:1;vector-effect:none;fill:#000000;fill-opacity:1;fill-rule:nonzero;stroke:none;stroke-width:1.17200053;stroke-linecap:butt;stroke-linejoin:round;stroke-miterlimit:4;stroke-dasharray:none;stroke-dashoffset:0;stroke-opacity:1;paint-order:stroke fill markers;color-rendering:auto;image-rendering:auto;shape-rendering:auto;text-rendering:auto;enable-background:accumulate"
       d="m 11.56927,289.094 a 0.58605857,0.58605914 0 0 0 -0.585937,0.58594 v 6.17344 a 0.58605857,0.58605914 0 0 0 0.585937,0.58594 h 2.217187 c 0.7766,0 1.453521,-0.16926 1.965625,-0.57969 0.511306,-0.40979 0.781249,-1.05033 0.781249,-1.73438 0,-0.52436 -0.15463,-1.02623 -0.473437,-1.41562 -0.07194,-0.0893 -0.208063,-0.0968 -0.29375,-0.17187 0.03214,-0.0338 0.09122,-0.0304 0.120312,-0.0672 0.276023,-0.34934 0.390625,-0.79523 0.390626,-1.26406 0,-0.62578 -0.262823,-1.2232 -0.745313,-1.59375 -0.482808,-0.3708 -1.110294,-0.51876 -1.828124,-0.51876 z m 1.421875,1.85938 h 0.65 c 0.333988,0 0.505156,0.073 0.55,0.10782 a 0.58605857,0.58605914 0 0 0 0.0031,0.002 c 0.05017,0.0385 0.07187,0.0491 0.07187,0.23437 0,0.18911 -0.02305,0.20004 -0.07187,0.2375 -0.04452,0.034 -0.217817,0.10625 -0.553125,0.10625 h -0.65 z m 0,2.5375 h 0.753125 c 0.368948,0 0.552138,0.0827 0.614062,0.13594 a 0.58605857,0.58605914 0 0 0 0.0062,0.005 c 0.06127,0.0512 0.117188,0.12594 0.117188,0.40156 0,0.27207 -0.05533,0.35387 -0.123438,0.4125 -0.06192,0.0532 -0.245112,0.13437 -0.614062,0.13437 h -0.753084 z"
       id="path4541"
       inkscape:connector-curvature="0" />
  </g>
</svg>
