<?xml version="1.0" encoding="UTF-8" standalone="no"?>
<!-- Created with Inkscape (http://www.inkscape.org/) -->

<svg
   xmlns:dc="http://purl.org/dc/elements/1.1/"
   xmlns:cc="http://creativecommons.org/ns#"
   xmlns:rdf="http://www.w3.org/1999/02/22-rdf-syntax-ns#"
   xmlns:svg="http://www.w3.org/2000/svg"
   xmlns="http://www.w3.org/2000/svg"
   xmlns:sodipodi="http://sodipodi.sourceforge.net/DTD/sodipodi-0.dtd"
   xmlns:inkscape="http://www.inkscape.org/namespaces/inkscape"
   width="32"
   height="32"
   viewBox="0 0 8.4666662 8.4666669"
   version="1.1"
   id="svg8"
   sodipodi:docname="icon_b.svg"
   inkscape:version="0.92.4 (5da689c313, 2019-01-14)">
  <defs
     id="defs2" />
  <sodipodi:namedview
     id="base"
     pagecolor="#ffffff"
     bordercolor="#666666"
     borderopacity="1.0"
     inkscape:pageopacity="0.0"
     inkscape:pageshadow="2"
     inkscape:zoom="4"
     inkscape:cx="26.451486"
     inkscape:cy="-19.854141"
     inkscape:document-units="mm"
     inkscape:current-layer="layer1"
     showgrid="true"
     units="px"
     inkscape:snap-global="true"
     inkscape:window-width="1920"
     inkscape:window-height="1057"
     inkscape:window-x="1912"
     inkscape:window-y="-8"
     inkscape:window-maximized="1">
    <inkscape:grid
       type="xygrid"
       id="grid3713"
       spacingx="2.1166666"
       spacingy="2.1166666" />
  </sodipodi:namedview>
  <metadata
     id="metadata5">
    <rdf:RDF>
      <cc:Work
         rdf:about="">
        <dc:format>image/svg+xml</dc:format>
        <dc:type
           rdf:resource="http://purl.org/dc/dcmitype/StillImage" />
        <dc:title></dc:title>
      </cc:Work>
    </rdf:RDF>
  </metadata>
  <g
     inkscape:label="Layer 1"
     inkscape:groupmode="layer"
     id="layer1"
     transform="translate(0,-288.53331)">
    <rect
       ry="1.3096191"
       y="288.53333"
       x="0"
       height="8.4666567"
       width="8.4666662"
       id="rect3808"
       style="fill:#999999;fill-opacity:1;stroke-width:0.13229159" />
    <path
       style="color:#000000;font-style:normal;font-variant:normal;font-weight:normal;font-stretch:normal;font-size:40px;line-height:1.25;font-family:sans-serif;font-variant-ligatures:normal;font-variant-position:normal;font-variant-caps:normal;font-variant-numeric:normal;font-variant-alternates:normal;font-feature-settings:normal;text-indent:0;text-align:start;text-decoration:none;text-decoration-line:none;text-decoration-style:solid;text-decoration-color:#000000;letter-spacing:0px;word-spacing:0px;text-transform:none;writing-mode:lr-tb;direction:ltr;text-orientation:mixed;dominant-baseline:auto;baseline-shift:baseline;text-anchor:start;white-space:normal;shape-padding:0;clip-rule:nonzero;display:inline;overflow:visible;visibility:visible;opacity:1;isolation:auto;mix-blend-mode:normal;color-interpolation:sRGB;color-interpolation-filters:linearRGB;solid-color:#000000;solid-opacity:1;vector-effect:none;fill:#ffffff;fill-opacity:1;fill-rule:nonzero;stroke:none;stroke-width:1.17200053;stroke-linecap:butt;stroke-linejoin:round;stroke-miterlimit:4;stroke-dasharray:none;stroke-dashoffset:0;stroke-opacity:1;paint-order:stroke fill markers;color-rendering:auto;image-rendering:auto;shape-rendering:auto;text-rendering:auto;enable-background:accumulate"
       d="m 2.0442706,289.094 a 0.58605857,0.58605914 0 0 0 -0.5859373,0.58594 v 6.17344 a 0.58605857,0.58605914 0 0 0 0.5859373,0.58594 h 2.2171876 c 0.7766003,0 1.4535213,-0.16926 1.9656256,-0.57969 0.511306,-0.40979 0.7812493,-1.05033 0.7812493,-1.73438 0,-0.52436 -0.15463,-1.02623 -0.4734373,-1.41562 -0.07194,-0.0893 -0.208063,-0.0968 -0.29375,-0.17187 0.03214,-0.0338 0.09122,-0.0304 0.120312,-0.0672 0.276023,-0.34934 0.390625,-0.79523 0.390626,-1.26406 0,-0.62578 -0.262823,-1.2232 -0.745313,-1.59375 -0.4828083,-0.3708 -1.1102943,-0.51876 -1.8281246,-0.51876 z m 1.4218753,1.85938 h 0.6500003 c 0.333988,0 0.505156,0.073 0.55,0.10782 a 0.58605857,0.58605914 0 0 0 0.0031,0.002 c 0.05017,0.0385 0.07187,0.0491 0.07187,0.23437 0,0.18911 -0.02305,0.20004 -0.07187,0.2375 -0.04452,0.034 -0.217817,0.10625 -0.553125,0.10625 H 3.4661209 Z m 0,2.5375 h 0.7531253 c 0.368948,0 0.5521383,0.0827 0.6140623,0.13594 a 0.58605857,0.58605914 0 0 0 0.0062,0.005 c 0.06127,0.0512 0.117188,0.12594 0.117188,0.40156 0,0.27207 -0.05533,0.35387 -0.123438,0.4125 -0.06192,0.0532 -0.2451123,0.13437 -0.6140623,0.13437 H 3.4661369 Z"
       id="path4541"
       inkscape:connector-curvature="0" />
  </g>
</svg>
