<?xml version="1.0" encoding="UTF-8" standalone="no"?>
<svg
   width="32"
   height="32"
   viewBox="0 0 8.4666662 8.4666669"
   version="1.1"
   id="svg8"
   sodipodi:docname="icon_select.svg"
   inkscape:version="1.1-alpha (ec367c6, 2021-02-07)"
   xmlns:inkscape="http://www.inkscape.org/namespaces/inkscape"
   xmlns:sodipodi="http://sodipodi.sourceforge.net/DTD/sodipodi-0.dtd"
   xmlns="http://www.w3.org/2000/svg"
   xmlns:svg="http://www.w3.org/2000/svg"
   xmlns:rdf="http://www.w3.org/1999/02/22-rdf-syntax-ns#"
   xmlns:cc="http://creativecommons.org/ns#"
   xmlns:dc="http://purl.org/dc/elements/1.1/">
  <defs
     id="defs2" />
  <sodipodi:namedview
     id="base"
     pagecolor="#ffffff"
     bordercolor="#666666"
     borderopacity="1.0"
     inkscape:pageopacity="0.0"
     inkscape:pageshadow="2"
     inkscape:zoom="8"
     inkscape:cx="53.5625"
     inkscape:cy="28.3125"
     inkscape:document-units="mm"
     inkscape:current-layer="layer1-4"
     showgrid="true"
     units="px"
     inkscape:snap-global="true"
     inkscape:window-width="1920"
     inkscape:window-height="1057"
     inkscape:window-x="-8"
     inkscape:window-y="1072"
     inkscape:window-maximized="1"
     objecttolerance="10.0"
     gridtolerance="10.0"
     guidetolerance="10.0"
     inkscape:pagecheckerboard="1">
    <inkscape:grid
       type="xygrid"
       id="grid3713"
       spacingx="2.1166666"
       spacingy="2.1166666" />
  </sodipodi:namedview>
  <metadata
     id="metadata5">
    <rdf:RDF>
      <cc:Work
         rdf:about="">
        <dc:format>image/svg+xml</dc:format>
        <dc:type
           rdf:resource="http://purl.org/dc/dcmitype/StillImage" />
      </cc:Work>
    </rdf:RDF>
  </metadata>
  <g
     inkscape:label="Layer 1"
     inkscape:groupmode="layer"
     id="layer1"
     transform="translate(0,-288.53331)">
    <g
       transform="matrix(0.06501411,0,0,0.06501418,-0.17028986,277.86107)"
       id="layer1-4"
       inkscape:label="Layer 1">
      <g
         inkscape:label="Layer 1"
         id="layer1-3"
         transform="matrix(1.0000001,0,0,0.99999874,1.911075e-6,1.8825936e-4)">
        <rect
           ry="20.143642"
           y="164.15251"
           x="2.6192667"
           height="130.22816"
           width="130.22813"
           id="rect3808"
           style="fill:#999999;fill-opacity:1;stroke-width:2.03481" />
        <path
           style="fill:#ffffff;fill-opacity:1;stroke-width:0.919198"
           d="m 42.522744,283.22798 c -1.64309,-0.71414 -2.98741,-1.50506 -2.98741,-1.7576 0,-0.25256 -0.60982,-2.80029 -1.35512,-5.66172 -0.74531,-2.8614 -2.40917,-14.15327 -3.69752,-25.09297 -1.28831,-10.93973 -3.14034,-26.09498 -4.11556,-33.67835 -4.2792,-33.27515 -4.37467,-37.22753 -0.89925,-37.22753 3.58114,0 12.77425,5.55653 28.57023,17.26846 8.78192,6.51136 24.51946,17.8955 34.97226,25.29811 10.452826,7.40262 19.272046,13.89119 19.598306,14.41908 0.32622,0.52786 0.15321,2.29599 -0.38455,3.92918 l -0.97769,2.96944 -8.87422,-0.29599 c -7.460866,-0.24875 -10.060456,0.074 -16.322586,2.02792 -8.99175,2.8055 -17.34263,7.7115 -23.60468,13.86731 -4.95742,4.87334 -11.66771,14.97887 -14.20911,21.39855 -1.73262,4.3766 -1.60699,4.32085 -5.7131,2.53618 z"
           id="path33"
           inkscape:connector-curvature="0" />
      </g>
    </g>
  </g>
</svg>
