<?xml version="1.0" encoding="UTF-8" standalone="no"?>
<svg
   width="32"
   height="32"
   viewBox="0 0 8.4666662 8.4666669"
   version="1.1"
   id="svg8"
   sodipodi:docname="icon_duplicate.svg"
   inkscape:version="1.1-alpha (ec367c6, 2021-02-07)"
   xmlns:inkscape="http://www.inkscape.org/namespaces/inkscape"
   xmlns:sodipodi="http://sodipodi.sourceforge.net/DTD/sodipodi-0.dtd"
   xmlns="http://www.w3.org/2000/svg"
   xmlns:svg="http://www.w3.org/2000/svg"
   xmlns:rdf="http://www.w3.org/1999/02/22-rdf-syntax-ns#"
   xmlns:cc="http://creativecommons.org/ns#"
   xmlns:dc="http://purl.org/dc/elements/1.1/">
  <defs
     id="defs2" />
  <sodipodi:namedview
     id="base"
     pagecolor="#ffffff"
     bordercolor="#666666"
     borderopacity="1.0"
     inkscape:pageopacity="0.0"
     inkscape:pageshadow="2"
     inkscape:zoom="11.313709"
     inkscape:cx="16.926368"
     inkscape:cy="11.888232"
     inkscape:document-units="mm"
     inkscape:current-layer="layer1-2"
     showgrid="true"
     units="px"
     inkscape:snap-global="true"
     inkscape:window-width="1920"
     inkscape:window-height="1057"
     inkscape:window-x="-8"
     inkscape:window-y="1072"
     inkscape:window-maximized="1"
     objecttolerance="10.0"
     gridtolerance="10.0"
     guidetolerance="10.0"
     inkscape:pagecheckerboard="1">
    <inkscape:grid
       type="xygrid"
       id="grid3713"
       spacingx="2.1166666"
       spacingy="2.1166666" />
  </sodipodi:namedview>
  <metadata
     id="metadata5">
    <rdf:RDF>
      <cc:Work
         rdf:about="">
        <dc:format>image/svg+xml</dc:format>
        <dc:type
           rdf:resource="http://purl.org/dc/dcmitype/StillImage" />
      </cc:Work>
    </rdf:RDF>
  </metadata>
  <g
     inkscape:label="Layer 1"
     inkscape:groupmode="layer"
     id="layer1"
     transform="translate(0,-288.53331)">
    <g
       transform="matrix(0.06501411,0,0,0.06501418,-0.17028986,277.86107)"
       id="layer1-4"
       inkscape:label="Layer 1">
      <g
         inkscape:label="Layer 1"
         id="layer1-2"
         transform="matrix(0.99999999,0,0,0.99999889,3.1924033e-5,1.4288106e-4)">
        <rect
           style="fill:#999999;fill-opacity:1;stroke-width:2.03481"
           id="rect3797"
           width="130.22813"
           height="130.22816"
           x="2.6192439"
           y="164.15251"
           ry="20.143642" />
        <path
           style="fill:#ffffff;fill-opacity:1;stroke-width:1.12917"
           d="m 240.61815,174.53793 c -14.78917,0 -15.09086,0.0538 -17.54109,2.75586 -1.37121,1.51591 -2.24507,3.1061 -1.94165,3.53316 0.30347,0.42683 3.90294,1.83776 7.99837,3.13632 7.42005,2.35264 17.21432,9.48271 22.30181,16.23471 1.14765,1.52313 2.56784,2.77025 3.15724,2.77025 0.58933,0 1.07371,-6.39685 1.07371,-14.21523 v -14.21507 z m -22.24269,11.27009 c -1.92792,0.12152 -3.59852,1.85383 -9.17376,8.02688 -4.2752,4.73359 -9.50917,10.12934 -11.63098,11.98994 -2.12177,1.86052 -3.50857,3.87431 -3.08158,4.4751 0.42699,0.60064 3.02323,1.092 5.77057,1.092 2.74733,0 7.48348,1.03716 10.52417,2.30557 6.73774,2.81047 20.22555,14.23715 21.33215,18.07124 0.44275,1.5342 1.25763,2.78878 1.81157,2.78878 1.48678,0 15.68458,-24.81731 15.68458,-27.41652 0,-5.08643 -18.33328,-18.34525 -29.06802,-21.02236 -0.85343,-0.21303 -1.52604,-0.35069 -2.1687,-0.3107 z m -25.12557,29.78977 c -5.74802,0.0615 -11.15869,1.9845 -16.02512,5.78921 -7.68215,6.00631 -9.94995,11.84528 -9.96368,25.6642 -0.0105,9.3632 -0.29595,10.5744 -3.68701,15.71644 -2.0209,3.06457 -5.03614,6.11221 -6.70236,6.77238 -4.26143,1.68848 -3.48903,5.32553 1.31966,6.21503 1.99793,0.36992 11.10253,0.72754 20.2348,0.79599 19.8222,0.14842 26.4374,-1.49437 35.95011,-8.93184 8.45202,-6.60818 12.73642,-14.54261 12.69523,-23.51305 -0.0384,-8.44571 -2.9735,-13.95074 -10.41539,-19.53138 -8.06791,-6.05015 -16.01592,-9.05419 -23.40624,-8.97698 z"
           id="path3788"
           inkscape:connector-curvature="0" />
        <path
           id="rect77"
           style="fill:#ffffff;fill-opacity:1;stroke-width:1.25081"
           d="m 51.652972,180.06098 c -6.859868,0 -12.383715,5.52385 -12.383715,12.38371 v 10.14404 H 27.363599 c -6.859867,0 -12.383716,5.52385 -12.383716,12.38371 v 55.28469 c 0,6.85986 5.523849,12.38372 12.383716,12.38372 h 55.284683 c 6.859867,0 12.383717,-5.52386 12.383717,-12.38372 v -10.14404 h 11.905661 c 6.85986,0 12.38371,-5.52385 12.38371,-12.38372 v -55.28468 c 0,-6.85986 -5.52385,-12.38371 -12.38371,-12.38371 z m 7.812677,11.31626 h 39.659329 c 4.920432,0 8.880132,3.9597 8.880132,8.88013 v 39.65932 c 0,4.92043 -3.9597,8.88013 -8.880132,8.88013 h -4.092979 v -33.82438 c 0,-6.85986 -5.52385,-12.38371 -12.383717,-12.38371 H 50.585524 v -2.33136 c 0,-4.92043 3.959694,-8.88013 8.880125,-8.88013 z m -24.289371,22.52775 h 39.659324 c 4.92043,0 8.880127,3.95971 8.880127,8.88013 v 39.65933 c 0,4.92043 -3.959697,8.88013 -8.880127,8.88013 H 35.176278 c -4.92043,0 -8.880128,-3.9597 -8.880128,-8.88013 v -39.65933 c 0,-4.92042 3.959698,-8.88013 8.880128,-8.88013 z" />
        <rect
           style="fill:#ffffff;stroke-width:4.06963"
           id="rect319"
           width="12.589772"
           height="40.29771"
           x="48.12228"
           y="221.52594"
           ry="2.6978133" />
        <rect
           style="fill:#ffffff;stroke-width:4.06963"
           id="rect401"
           width="12.589772"
           height="40.29771"
           x="235.37991"
           y="-74.566025"
           ry="2.6978133"
           transform="rotate(90)" />
      </g>
    </g>
  </g>
</svg>
