<?xml version="1.0" encoding="UTF-8" standalone="no"?>
<svg
   width="32"
   height="32"
   viewBox="0 0 8.4666662 8.4666669"
   version="1.1"
   id="svg8"
   sodipodi:docname="icon_pick.svg"
   inkscape:version="1.1-alpha (ec367c6, 2021-02-07)"
   xmlns:inkscape="http://www.inkscape.org/namespaces/inkscape"
   xmlns:sodipodi="http://sodipodi.sourceforge.net/DTD/sodipodi-0.dtd"
   xmlns="http://www.w3.org/2000/svg"
   xmlns:svg="http://www.w3.org/2000/svg"
   xmlns:rdf="http://www.w3.org/1999/02/22-rdf-syntax-ns#"
   xmlns:cc="http://creativecommons.org/ns#"
   xmlns:dc="http://purl.org/dc/elements/1.1/">
  <defs
     id="defs2">
    <pattern
       id="EMFhbasepattern"
       patternUnits="userSpaceOnUse"
       width="6"
       height="6"
       x="0"
       y="0" />
  </defs>
  <sodipodi:namedview
     id="base"
     pagecolor="#ffffff"
     bordercolor="#666666"
     borderopacity="1.0"
     inkscape:pageopacity="0.0"
     inkscape:pageshadow="2"
     inkscape:zoom="11.313708"
     inkscape:cx="24.792932"
     inkscape:cy="12.59534"
     inkscape:document-units="mm"
     inkscape:current-layer="layer1-4"
     showgrid="true"
     units="px"
     inkscape:snap-global="true"
     inkscape:window-width="1920"
     inkscape:window-height="1057"
     inkscape:window-x="-8"
     inkscape:window-y="1072"
     inkscape:window-maximized="1"
     objecttolerance="10.0"
     gridtolerance="10.0"
     guidetolerance="10.0"
     inkscape:pagecheckerboard="1">
    <inkscape:grid
       type="xygrid"
       id="grid3713"
       spacingx="2.1166666"
       spacingy="2.1166666" />
  </sodipodi:namedview>
  <metadata
     id="metadata5">
    <rdf:RDF>
      <cc:Work
         rdf:about="">
        <dc:format>image/svg+xml</dc:format>
        <dc:type
           rdf:resource="http://purl.org/dc/dcmitype/StillImage" />
      </cc:Work>
    </rdf:RDF>
  </metadata>
  <g
     inkscape:label="Layer 1"
     inkscape:groupmode="layer"
     id="layer1"
     transform="translate(0,-288.53331)">
    <g
       transform="matrix(0.06501411,0,0,0.06501418,-0.17028986,277.86107)"
       id="layer1-4"
       inkscape:label="Layer 1">
      <g
         inkscape:label="Layer 1"
         id="layer1-3"
         transform="matrix(1.0000001,0,0,0.99999874,1.911075e-6,1.8825936e-4)">
        <rect
           ry="20.143642"
           y="164.15251"
           x="2.6192667"
           height="130.22816"
           width="130.22813"
           id="rect3808"
           style="fill:#999999;fill-opacity:1;stroke-width:2.03481" />
      </g>
      <path
         style="fill:#ffffff;stroke-width:0.361981;stroke:#ffffff"
         d="m 25.475637,274.52309 -6.754568,-6.94673 1.800741,-1.90401 c 1.187044,-1.25513 1.737959,-2.11886 1.616518,-2.53441 -0.625758,-2.14121 -0.948553,-5.57649 -0.948553,-10.09478 0,-6.12058 0.512501,-7.94399 3.077282,-10.94871 0.895658,-1.04929 1.628471,-2.02133 1.628471,-2.16007 0,-0.27936 24.521841,-24.78823 26.232355,-26.21848 l 1.074651,-0.89858 -1.382149,-1.52988 c -1.929623,-2.13585 -2.7406,-4.10366 -2.750109,-6.673 -0.01094,-2.82417 0.988304,-4.87509 3.651543,-7.49838 4.883421,-4.81017 10.815849,-5.79535 14.050188,-2.33329 0.482649,0.51664 1.134222,0.94441 1.447922,0.9506 0.3137,0.006 4.724103,-4.20581 9.800891,-9.36 8.59045,-8.72141 9.435146,-9.4752 12.181631,-10.87066 3.556198,-1.80686 4.826951,-1.87781 11.072139,-0.6182 7.78794,1.57078 13.08623,4.91208 18.681,11.78094 3.2988,4.05004 5.51845,10.35361 6.07208,17.24415 l 0.23612,2.93875 -1.76812,3.35343 c -1.69819,3.22081 -2.12962,3.70421 -10.90918,12.22332 -5.02757,4.87845 -9.14106,9.113 -9.14106,9.41011 0,0.29711 0.56136,1.16157 1.24746,1.921 2.4309,2.6907 2.47867,6.00979 0.14528,10.09098 -4.26982,7.46804 -11.499411,9.43151 -16.868169,4.58116 l -1.439969,-1.30093 -6.836002,6.92165 c -3.759803,3.80691 -9.523707,9.6383 -12.808691,12.95867 -3.284973,3.32035 -6.897458,6.71674 -8.027753,7.54753 -1.130283,0.83078 -2.159882,1.68012 -2.287998,1.88741 -0.128117,0.20729 -1.076585,0.81822 -2.107716,1.35761 -1.747991,0.9144 -2.241998,0.98997 -7.304497,1.11742 -4.74013,0.11929 -8.626699,-0.19353 -11.127835,-0.89579 -0.41166,-0.11564 -1.302965,0.45911 -2.568842,1.65633 -1.066164,1.00832 -2.004175,1.82392 -2.084478,1.81244 -0.08038,-0.011 -3.185578,-3.1469 -6.900583,-6.9676 z m 52.454677,-26.38315 c 3.036121,-3.021 5.520221,-5.60571 5.520221,-5.7438 0,-0.13809 -1.832527,-1.96782 -4.072287,-4.06606 C 75.612682,234.80245 65.253156,224.422 59.976229,218.88889 l -2.243943,-2.35288 -13.934219,14.11725 c -7.663808,7.76449 -14.345903,14.64562 -14.849102,15.29139 -1.434364,1.84082 -2.312865,4.10185 -2.321523,5.97499 l -0.0085,1.7194 22.895314,-0.004 22.895302,-0.004 5.520208,-5.49274 z"
         id="path130" />
    </g>
  </g>
</svg>
