<?xml version="1.0" encoding="UTF-8" standalone="no"?>
<svg
   width="32"
   height="32"
   viewBox="0 0 8.4666662 8.4666669"
   version="1.1"
   id="svg8"
   sodipodi:docname="icon_displace.svg"
   inkscape:version="1.1-alpha (ec367c6, 2021-02-07)"
   xmlns:inkscape="http://www.inkscape.org/namespaces/inkscape"
   xmlns:sodipodi="http://sodipodi.sourceforge.net/DTD/sodipodi-0.dtd"
   xmlns="http://www.w3.org/2000/svg"
   xmlns:svg="http://www.w3.org/2000/svg"
   xmlns:rdf="http://www.w3.org/1999/02/22-rdf-syntax-ns#"
   xmlns:cc="http://creativecommons.org/ns#"
   xmlns:dc="http://purl.org/dc/elements/1.1/">
  <defs
     id="defs2" />
  <sodipodi:namedview
     id="base"
     pagecolor="#ffffff"
     bordercolor="#666666"
     borderopacity="1.0"
     inkscape:pageopacity="0.0"
     inkscape:pageshadow="2"
     inkscape:zoom="16"
     inkscape:cx="36.46875"
     inkscape:cy="19.78125"
     inkscape:document-units="mm"
     inkscape:current-layer="layer1-4"
     showgrid="true"
     units="px"
     inkscape:snap-global="true"
     inkscape:window-width="1920"
     inkscape:window-height="1057"
     inkscape:window-x="-8"
     inkscape:window-y="1072"
     inkscape:window-maximized="1"
     objecttolerance="10.0"
     gridtolerance="10.0"
     guidetolerance="10.0"
     inkscape:pagecheckerboard="1">
    <inkscape:grid
       type="xygrid"
       id="grid3713"
       spacingx="2.1166666"
       spacingy="2.1166666" />
  </sodipodi:namedview>
  <metadata
     id="metadata5">
    <rdf:RDF>
      <cc:Work
         rdf:about="">
        <dc:format>image/svg+xml</dc:format>
        <dc:type
           rdf:resource="http://purl.org/dc/dcmitype/StillImage" />
        <dc:title />
      </cc:Work>
    </rdf:RDF>
  </metadata>
  <g
     inkscape:label="Layer 1"
     inkscape:groupmode="layer"
     id="layer1"
     transform="translate(0,-288.53331)">
    <g
       transform="matrix(0.06501411,0,0,0.06501418,-0.17028986,277.86107)"
       id="layer1-4"
       inkscape:label="Layer 1">
      <rect
         ry="20.143642"
         y="164.15251"
         x="2.6192737"
         height="130.22816"
         width="130.23326"
         id="rect3810"
         style="fill:#999999;fill-opacity:1;stroke-width:2.03481" />
      <path
         id="rect429"
         style="fill:#ffffff;stroke-width:4.06963"
         d="m 67.733344,192.41756 c -19.30166,-0.59271 -33.69596,16.50595 -36.06818,34.05107 -1.62498,3.64882 -5.78803,5.0362 -9.50913,4.61032 -3.681771,-0.54598 -7.791471,1.76258 -8.057991,5.7495 -0.0545,8.03486 -0.0551,16.07546 0,24.11032 0.27027,4.04876 4.46363,6.31259 8.177571,5.74945 30.44696,-0.0219 60.89612,0.0439 91.341696,-0.0329 4.04877,-0.27027 6.31259,-4.46363 5.74945,-8.17756 -0.0818,-7.42652 0.16663,-14.87379 -0.12966,-22.28687 -0.63219,-3.75387 -4.59221,-5.59216 -8.08085,-5.11185 -3.53238,0.25454 -7.18978,-2.31775 -7.94878,-5.81829 -1.03523,-18.04442 -17.402106,-33.19824 -35.474126,-32.84315 z" />
    </g>
  </g>
</svg>
